<svg xmlns="http://www.w3.org/2000/svg" xmlns:xlink="http://www.w3.org/1999/xlink" viewBox="0 0 1000 1000"><defs><style>.cls-1,.cls-4,.cls-5,.cls-9{fill:none;}.cls-2{clip-path:url(#clip-path);}.cls-3{stroke:#000;stroke-width:6px;}.cls-3,.cls-4,.cls-5,.cls-6,.cls-7,.cls-9{stroke-miterlimit:10;}.cls-4,.cls-5,.cls-9{stroke:#fff;}.cls-4{stroke-width:15px;opacity:0.67;}.cls-5,.cls-7{stroke-width:64px;}.cls-6{fill:blue;fill-opacity:0.31;stroke:#001ed1;stroke-width:75px;}.cls-7{fill:red;fill-opacity:0.3;stroke:red;}.cls-8{fill:#e5e5e5;opacity:0.4;}.cls-9{stroke-width:56px;stroke-dasharray:148.91 74.46;}.cls-10{fill:#f90000;}</style><clipPath id="clip-path"><rect class="cls-1" x="3.17" y="2.55" width="994.89" height="994.89" rx="203.01"/></clipPath></defs><title>Curves</title><g id="Layer_3" data-name="Layer 3"><g class="cls-2"><rect class="cls-3" x="3.17" y="2.55" width="991.01" height="991.01" rx="101.06"/><line class="cls-4" x1="498.67" y1="2.55" x2="498.67" y2="1013.49"/><line class="cls-5" x1="3.17" y1="498.06" x2="994.18" y2="498.06"/><path class="cls-6" d="M-254.47,498.87s287.51,1371.21,657,0c388.61-1442.22,657,0,657,0"/><path class="cls-7" d="M-623,508.07c47.25,113.43,123.07,252.28,226,257.82,240.26,13,383.88-714,629.62-701.24C317.4,69,344.1,157.87,612.51,517.72,903.45,907.77,957.71,918.2,987,918c265-2,383.53-892.23,570.38-882.15,62.24,3.36,136,106.82,206.37,484"/><path class="cls-8" d="M-1026.56,498.88c122.78,396.35,223.23,479,293.2,478.91,80.75-.13,133.72-108.56,372.79-520.95C-118.16,38.69-34.73-87.44,45.81-77.92,102.66-71.21,139.08.93,211.92,145.2c8.63,17.09,15.15,30.56,43.64,95,46,104,68.94,156,111.54,257C476.74,757.07,554.6,936.56,637.33,932.93c57.21-2.52,105.81-99.91,203-294.69,14.82-29.69,43.6-89.57,72.3-151.58,24.7-53.36,47.16-107.81,74.15-160.06,85.57-165.66,109-176.32,125.15-176.75,41.15-1.08,100.41,62.36,179.09,349h0"/><path class="cls-9" d="M-978.92,640.52C-877.68,915.7-794,977.9-733.36,977.79c80.75-.13,133.72-108.56,372.79-520.95C-118.16,38.69-34.73-87.44,45.81-77.92,102.66-71.21,139.08.93,211.92,145.2c8.63,17.09,15.15,30.56,43.64,95,46,104,68.94,156,111.54,257C476.74,757.07,554.6,936.56,637.33,932.93c57.21-2.52,105.81-99.91,203-294.69,14.82-29.69,43.6-89.57,72.3-151.58,24.7-53.36,47.16-107.81,74.15-160.06,85.57-165.66,109-176.32,125.15-176.75,35.4-.93,84.19,45.88,147.22,241.42"/><circle class="cls-10" cx="386.7" cy="209.23" r="63.72"/></g></g></svg>